<?xml version="1.0" standalone="no"?>
<!DOCTYPE svg PUBLIC "-//W3C//DTD SVG 20010904//EN"
 "http://www.w3.org/TR/2001/REC-SVG-20010904/DTD/svg10.dtd">
<svg version="1.0" xmlns="http://www.w3.org/2000/svg"
 width="2704.000000pt" height="2704.000000pt" viewBox="0 0 2704.000000 2704.000000"
 preserveAspectRatio="xMidYMid meet">

<g transform="translate(0.000000,2704.000000) scale(0.100000,-0.100000)"
fill="#000000" stroke="none">
<path d="M800 27011 c-293 -62 -547 -258 -684 -528 -47 -91 -72 -165 -91 -265
-13 -72 -15 -1451 -15 -12698 0 -11247 2 -12626 15 -12698 77 -404 393 -720
797 -797 72 -13 1451 -15 12702 -15 12266 0 12624 1 12711 19 389 80 696 387
776 776 18 87 19 445 19 12715 0 12270 -1 12628 -19 12715 -38 184 -119 339
-251 478 -157 166 -328 261 -542 302 -72 13 -1450 15 -12707 14 -12108 0
-12629 -1 -12711 -18z m23368 -2656 c189 -45 332 -188 377 -377 13 -55 15
-1339 15 -10549 0 -7054 -3 -10504 -10 -10540 -37 -194 -205 -362 -399 -399
-75 -14 -20997 -14 -21072 0 -190 36 -348 189 -394 382 -13 55 -15 1339 -15
10553 0 9214 2 10498 15 10553 44 185 189 332 371 376 91 22 21019 23 21112 1z"/>
<path d="M13500 22850 c-1567 -60 -2880 -490 -3949 -1293 -309 -233 -687 -587
-901 -847 -691 -836 -1115 -1837 -1310 -3090 -22 -141 -61 -462 -57 -466 2 -3
4003 -264 4033 -264 6 0 20 65 32 159 25 183 76 395 135 560 55 156 178 401
274 546 458 692 1049 1012 1973 1065 605 36 1072 -104 1511 -450 226 -178 417
-483 503 -801 82 -306 94 -673 30 -959 -56 -247 -134 -409 -314 -649 -393
-524 -759 -902 -1524 -1574 -858 -753 -1374 -1224 -1621 -1478 -436 -448 -642
-905 -747 -1649 -20 -146 -22 -201 -25 -942 l-4 -788 1970 0 1971 0 0 434 c0
557 14 671 120 986 101 299 196 459 421 709 158 176 301 301 722 630 571 446
1219 1022 1514 1348 540 594 805 966 1044 1458 236 486 358 910 418 1452 132
1173 -54 2284 -526 3143 -363 661 -822 1191 -1369 1580 -761 542 -1459 835
-2467 1035 -610 121 -1232 169 -1857 145z"/>
<path d="M13300 8454 c-291 -28 -643 -124 -869 -238 -278 -139 -415 -241 -656
-487 -227 -231 -323 -367 -459 -649 -163 -339 -235 -702 -223 -1125 12 -394
74 -643 252 -1010 180 -371 462 -693 812 -927 230 -154 593 -300 876 -352 355
-66 754 -55 1087 30 152 39 418 141 560 216 217 114 499 325 617 463 270 315
477 715 568 1095 42 179 58 335 58 570 1 418 -74 743 -252 1095 -207 408 -436
675 -776 902 -324 217 -631 334 -1042 399 -95 15 -459 27 -553 18z"/>
</g>
</svg>
